<?xml version="1.0" encoding="UTF-8" standalone="no"?>
<!DOCTYPE svg PUBLIC "-//W3C//DTD SVG 20010904//EN"
              "http://www.w3.org/TR/2001/REC-SVG-20010904/DTD/svg10.dtd">

<svg xmlns="http://www.w3.org/2000/svg"
     width="7.11022in" height="7.11022in"
     viewBox="0 0 512 512">
  <path id="Selection"
        fill="none" stroke="black" stroke-width="1"
        d="M 266.00,30.21
           C 266.00,30.21 278.00,30.91 278.00,30.91
             356.19,36.38 427.71,83.17 463.74,153.00
             478.40,181.41 488.85,216.91 489.00,249.00
             489.00,249.00 489.82,260.00 489.82,260.00
             489.82,260.00 489.00,270.00 489.00,270.00
             487.98,357.32 428.91,438.84 349.00,471.99
             324.08,482.33 297.01,488.69 270.00,489.00
             270.00,489.00 260.00,489.82 260.00,489.82
             260.00,489.82 253.00,489.04 253.00,489.04
             253.00,489.04 244.00,489.04 244.00,489.04
             223.52,488.76 194.04,481.22 175.00,473.60
             146.13,462.05 119.10,445.02 97.04,422.96
             27.26,353.19 11.58,248.71 52.31,160.00
             57.61,148.45 65.19,136.34 72.58,126.00
             102.49,84.14 142.99,55.26 192.00,40.02
             206.26,35.59 220.20,33.04 235.00,31.28
             235.00,31.28 246.00,30.21 246.00,30.21
             246.00,30.21 266.00,30.21 266.00,30.21 Z
           M 153.33,146.09
           C 140.10,160.88 147.53,188.89 174.00,189.96
             182.50,190.30 191.88,187.37 197.67,180.91
             209.66,167.55 204.39,146.22 188.00,139.35
             182.55,137.06 176.81,136.72 171.00,137.30
             164.21,138.58 158.08,140.78 153.33,146.09 Z
           M 388.00,335.00
           C 388.00,335.00 388.00,310.00 388.00,310.00
             388.00,278.80 392.22,238.96 363.00,218.44
             358.44,215.24 355.23,213.77 350.00,212.00
             343.02,209.65 339.33,209.01 332.00,209.00
             332.00,209.00 326.00,209.00 326.00,209.00
             313.43,209.02 302.51,212.73 293.00,221.18
             293.00,221.18 281.00,234.00 281.00,234.00
             281.00,234.00 281.00,212.00 281.00,212.00
             281.00,212.00 231.00,212.00 231.00,212.00
             231.00,212.00 231.00,367.00 231.00,367.00
             231.00,367.00 281.00,367.00 281.00,367.00
             281.00,367.00 281.00,285.00 281.00,285.00
             281.21,267.47 288.76,249.24 309.00,249.00
             312.69,248.96 316.48,248.84 320.00,250.13
             333.12,254.95 336.98,270.49 337.00,283.00
             337.00,283.00 337.00,367.00 337.00,367.00
             337.00,367.00 388.00,367.00 388.00,367.00
             388.00,367.00 388.00,335.00 388.00,335.00 Z
           M 150.00,212.00
           C 150.00,212.00 150.00,367.00 150.00,367.00
             150.00,367.00 201.00,367.00 201.00,367.00
             201.00,367.00 201.00,212.00 201.00,212.00
             201.00,212.00 150.00,212.00 150.00,212.00 Z" />
</svg>
