<?xml version="1.0" encoding="UTF-8" standalone="no"?>
<!DOCTYPE svg PUBLIC "-//W3C//DTD SVG 20010904//EN"
              "http://www.w3.org/TR/2001/REC-SVG-20010904/DTD/svg10.dtd">

<svg xmlns="http://www.w3.org/2000/svg"
     width="0.43in" height="0.43in"
     viewBox="0 0 129 129">
  <path id="Selection"
        fill="none" stroke="black" stroke-width="1"
        d="M 80.00,10.13
           C 87.03,11.84 93.12,14.52 99.00,18.78
             135.62,45.30 128.63,102.76 86.00,118.94
             80.22,121.13 69.10,123.26 63.00,122.91
             49.55,122.14 33.67,115.54 24.29,105.83
             2.89,83.69 2.90,47.31 24.29,25.17
             34.63,14.46 45.76,10.57 60.00,8.42
             66.61,7.62 73.54,8.56 80.00,10.13 Z
           M 45.98,48.11
           C 54.54,46.10 53.98,33.01 42.02,34.43
             31.43,38.88 38.07,49.96 45.98,48.11 Z
           M 98.00,85.00
           C 98.02,73.96 101.92,54.69 86.00,52.21
             84.44,51.97 81.56,51.97 80.00,52.21
             76.51,52.75 74.79,54.03 72.00,56.00
             69.61,52.43 67.11,52.85 63.00,53.02
             56.80,53.28 57.04,55.53 57.00,61.00
             57.00,61.00 57.00,85.00 57.00,85.00
             57.01,86.82 56.85,89.92 58.02,91.40
             59.53,93.31 63.76,93.07 66.00,92.98
             67.41,92.92 69.23,92.90 70.40,91.98
             72.38,90.41 72.00,86.30 72.00,84.00
             72.01,80.15 71.40,70.19 73.17,67.21
             75.86,62.71 83.82,61.42 84.00,74.00
             84.00,74.00 84.00,93.00 84.00,93.00
             84.00,93.00 98.00,93.00 98.00,93.00
             98.00,93.00 98.00,85.00 98.00,85.00 Z
           M 37.00,53.00
           C 37.00,53.00 37.00,93.00 37.00,93.00
             37.00,93.00 51.00,93.00 51.00,93.00
             51.00,93.00 51.00,53.00 51.00,53.00
             51.00,53.00 37.00,53.00 37.00,53.00 Z" />
</svg>
